<svg width="250" height="250" viewBox="0 0 250 250" fill="none" xmlns="http://www.w3.org/2000/svg">
<path d="M59.375 179.964C64.5527 188.932 75.6738 192.204 84.2147 187.273L161.538 142.63C170.079 137.699 172.806 126.432 167.628 117.464C162.451 108.496 151.329 105.223 142.788 110.155L111.859 128.012L65.4647 154.797C56.9238 159.728 54.1973 170.996 59.375 179.964Z" fill="url(#paint0_linear_0_1)"/>
<path d="M73.101 128.738C78.2786 137.706 89.3998 140.978 97.9407 136.047L128.87 118.19L175.264 91.4045C183.805 86.4734 186.532 75.206 181.354 66.238C176.176 57.27 165.055 53.9975 156.514 58.9286L79.1907 103.571C70.6498 108.503 67.9233 119.77 73.101 128.738Z" fill="url(#paint1_linear_0_1)"/>
<defs>
<linearGradient id="paint0_linear_0_1" x1="59.375" y1="179.964" x2="167.628" y2="117.464" gradientUnits="userSpaceOnUse">
<stop stop-color="#FFB300"/>
<stop offset="0.635" stop-color="#5100FF"/>
</linearGradient>
<linearGradient id="paint1_linear_0_1" x1="73.101" y1="128.738" x2="181.354" y2="66.238" gradientUnits="userSpaceOnUse">
<stop stop-color="#FF0000"/>
<stop offset="1" stop-color="#0015FF"/>
</linearGradient>
</defs>
</svg>
